<?xml version="1.0" encoding="UTF-8" standalone="no"?>
<!DOCTYPE svg PUBLIC "-//W3C//DTD SVG 1.1//EN" "http://www.w3.org/Graphics/SVG/1.1/DTD/svg11.dtd">
<svg width="100%" height="100%" viewBox="0 0 212 277" version="1.1" xmlns="http://www.w3.org/2000/svg" xmlns:xlink="http://www.w3.org/1999/xlink" xml:space="preserve" xmlns:serif="http://www.serif.com/" style="fill-rule:evenodd;clip-rule:evenodd;stroke-miterlimit:10;">
    <g transform="matrix(1,0,0,1,-12786.9,-25303.5)">
        <g transform="matrix(5.55556,0,0,5.55556,11373,24312.9)">
            <g transform="matrix(1,0,0,1,262.714,202.883)">
                <path d="M0,-6.742C0,-6.742 0.916,-2.053 5.554,-1.027C10.193,0 13.463,-2.838 13.745,-3.301C14.026,-3.764 15.415,-5.303 15.395,-6.742" style="fill:none;fill-rule:nonzero;stroke:rgb(35,31,32);stroke-width:0.4px;"/>
            </g>
        </g>
        <g transform="matrix(5.55556,0,0,5.55556,11373,24312.9)">
            <g transform="matrix(0.961173,0.275947,0.275947,-0.961173,263.383,195.736)">
                <path d="M1.791,-0.494C1.791,-0.494 -6.262,-1.597 -8.782,5.704C-8.782,5.704 -8.244,8.746 1.791,12.218C2.071,12.314 2.354,12.399 2.64,12.472C4.275,12.888 10.045,14.334 11.812,14.447" style="fill:none;fill-rule:nonzero;stroke:rgb(35,31,32);stroke-width:0.4px;"/>
            </g>
        </g>
        <g transform="matrix(5.55556,0,0,5.55556,11373,24312.9)">
            <g transform="matrix(-0.763495,0.645813,0.645813,0.763495,279.167,198.952)">
                <path d="M-11.644,-4.264C-6.393,0.961 1.562,-4.264 1.562,-4.264" style="fill:none;fill-rule:nonzero;stroke:rgb(35,31,32);stroke-width:0.4px;"/>
            </g>
        </g>
        <g transform="matrix(5.55556,0,0,5.55556,11373,24312.9)">
            <g transform="matrix(0.999846,-0.0175493,-0.0175493,-0.999846,261.27,187.372)">
                <path d="M-0.012,0.151C-0.012,0.151 10.684,1.534 17.196,0.151" style="fill:none;fill-rule:nonzero;stroke:rgb(35,31,32);stroke-width:0.4px;"/>
            </g>
        </g>
        <g transform="matrix(5.55556,0,0,5.55556,11373,24312.9)">
            <g transform="matrix(1,0,0,1,278.723,187.948)">
                <path d="M0,0.023C0,0.023 0.081,0.438 2.012,0.4C3.944,0.363 6.223,-0.415 6.223,-0.415" style="fill:none;fill-rule:nonzero;stroke:rgb(35,31,32);stroke-width:0.4px;"/>
            </g>
        </g>
        <g transform="matrix(5.55556,0,0,5.55556,11373,24312.9)">
            <g transform="matrix(1,0,0,1,284.946,182.132)">
                <path d="M0,7.907L0.357,10.309C0.357,10.309 4.92,9.13 5.569,5.402C6.218,1.674 4.151,-1.466 2.038,-1.662C-0.075,-1.858 -3.034,-2.402 -5.056,1.568C-5.056,1.568 -5.969,3.575 -5.313,6.096" style="fill:none;fill-rule:nonzero;stroke:rgb(35,31,32);stroke-width:0.4px;"/>
            </g>
        </g>
        <g transform="matrix(5.55556,0,0,5.55556,11373,24312.9)">
            <g transform="matrix(1,0,0,1,285.303,190.315)">
                <path d="M0,-2.138C-0.473,-1.846 -2.083,-1.182 -4.89,-0.679C-7.016,-0.298 -12.406,0.347 -19.349,0.015C-26.292,-0.317 -28.787,-2.485 -28.787,-2.485" style="fill:none;fill-rule:nonzero;stroke:rgb(35,31,32);stroke-width:0.4px;"/>
            </g>
        </g>
        <g transform="matrix(5.55556,0,0,5.55556,11373,24312.9)">
            <g transform="matrix(1,0,0,1,280.735,184.054)">
                <path d="M0,4.294C0,4.294 -1.321,2.566 -0.06,1.773C-0.06,1.773 -0.825,1.283 -0.473,0.023C-0.121,-1.238 0.77,-1.698 1.162,-1.864C1.555,-2.03 2.279,-1.773 2.279,-1.773C2.279,-1.773 2.415,-2.551 3.502,-2.754C4.588,-2.958 6.309,-3.019 7.109,-2.498C7.909,-1.977 7.486,-0.566 7.486,-0.566C7.486,-0.566 7.886,-0.77 8.362,-0.551C8.837,-0.332 9.343,1.177 9.252,1.955C9.161,2.732 8.331,3.328 8.226,3.404C8.226,3.404 8.55,3.705 8.407,4.596C8.263,5.486 7.531,7.177 5.358,7.313L4.568,4.123" style="fill:none;fill-rule:nonzero;stroke:rgb(35,31,32);stroke-width:0.4px;"/>
            </g>
        </g>
        <g transform="matrix(5.55556,0,0,5.55556,11373,24312.9)">
            <g transform="matrix(1,0,0,1,283.014,187.221)">
                <path d="M0,-4.94L2.214,0L-2.339,-1.393" style="fill:none;fill-rule:nonzero;stroke:rgb(35,31,32);stroke-width:0.4px;"/>
            </g>
        </g>
        <g transform="matrix(5.55556,0,0,5.55556,11373,24312.9)">
            <g transform="matrix(1,0,0,1,288.961,183.489)">
                <path d="M0,3.969L-3.733,3.733L-0.74,0" style="fill:none;fill-rule:nonzero;stroke:rgb(35,31,32);stroke-width:0.4px;"/>
            </g>
        </g>
        <g transform="matrix(5.55556,0,0,5.55556,11373,24312.9)">
            <g transform="matrix(0.872385,-0.488819,-0.488819,-0.872385,271.651,202.337)">
                <path d="M-0.378,1.449C-0.378,1.449 3.065,-0.33 5.55,1.449" style="fill:none;fill-rule:nonzero;stroke:rgb(35,31,32);stroke-width:0.4px;"/>
            </g>
        </g>
        <g transform="matrix(5.55556,0,0,5.55556,11373,24312.9)">
            <g transform="matrix(1,0,0,1,267.951,223.117)">
                <path d="M0,-21.321C0,-21.321 1.64,-14.69 1.097,-10.867C0.553,-7.043 0.493,-2.676 -1.64,0" style="fill:none;fill-rule:nonzero;stroke:rgb(35,31,32);stroke-width:0.4px;"/>
            </g>
        </g>
        <g transform="matrix(5.55556,0,0,5.55556,11373,24312.9)">
            <g transform="matrix(1,0,0,1,272.803,223.676)">
                <path d="M0,-21.96C0,-21.96 -1.561,-17.926 -1.541,-14.545C-1.521,-11.164 -2.054,-6.767 -1.239,-2.148C-1.239,-2.148 -0.952,-0.559 -0.268,0" style="fill:none;fill-rule:nonzero;stroke:rgb(35,31,32);stroke-width:0.4px;"/>
            </g>
        </g>
        <g transform="matrix(5.55556,0,0,5.55556,11373,24312.9)">
            <g transform="matrix(0.997227,0.074422,0.074422,-0.997227,264.307,223.852)">
                <path d="M-0.04,-0.265C-0.04,-0.265 5.317,-1.205 7.055,-0.265" style="fill:none;fill-rule:nonzero;stroke:rgb(35,31,32);stroke-width:0.4px;"/>
            </g>
        </g>
        <g transform="matrix(5.55556,0,0,5.55556,11373,24312.9)">
            <g transform="matrix(1,0,0,1,265.934,225.962)">
                <path d="M0,-5.154C0,-5.154 -2.586,-5.436 -4.186,-4.108C-5.786,-2.779 -4.691,-1.678 -3.683,-1.061C-1.488,0.282 1.958,0.28 5.175,-0.002C8.392,-0.284 11.883,-1.099 11.974,-2.478C12.064,-3.856 9.992,-4.339 9.217,-4.591C8.442,-4.842 6.802,-5.179 6.802,-5.179" style="fill:none;fill-rule:nonzero;stroke:rgb(35,31,32);stroke-width:0.4px;"/>
            </g>
        </g>
    </g>
</svg>
