<?xml version="1.0" encoding="UTF-8" standalone="no"?>
<!-- Created with Inkscape (http://www.inkscape.org/) -->

<svg
   version="1.1"
   id="svg1"
   width="357.33334"
   height="360"
   viewBox="0 0 357.33334 360"
   xml:space="preserve"
   xmlns="http://www.w3.org/2000/svg"
   xmlns:svg="http://www.w3.org/2000/svg"><defs
     id="defs1"><clipPath
       clipPathUnits="userSpaceOnUse"
       id="clipPath4"><path
         d="M 0,270 H 268 V 0 H 0 Z"
         transform="translate(-137.54001,-201.70311)"
         id="path4" /></clipPath><clipPath
       clipPathUnits="userSpaceOnUse"
       id="clipPath6"><path
         d="M 0,270 H 268 V 0 H 0 Z"
         transform="translate(-153.9639,-165.00051)"
         id="path6" /></clipPath><clipPath
       clipPathUnits="userSpaceOnUse"
       id="clipPath8"><path
         d="M 0,270 H 268 V 0 H 0 Z"
         transform="translate(-129.35061,-164.7822)"
         id="path8" /></clipPath></defs><g
     id="layer-MC0"><path
       id="path3"
       d="m 0,0 c -20.788,0 -37.701,-17.122 -37.701,-38.167 0,-5.203 3.103,-15.251 11.848,-26.446 13.075,-16.735 22.476,-41.346 25.852,-60.042 3.377,18.696 12.778,43.307 25.853,60.042 C 34.597,-53.418 37.7,-43.37 37.7,-38.167 37.7,-17.122 20.788,0 0,0 m 1.625,-136.87 h -3.251 l -0.073,1.423 c -0.949,18.441 -11.127,49.288 -26.517,68.987 -9.205,11.783 -12.485,22.341 -12.485,28.293 0,22.7 18.258,41.167 40.7,41.167 C 22.441,3 40.7,-15.467 40.7,-38.167 40.7,-44.119 37.42,-54.677 28.215,-66.46 12.825,-86.159 2.647,-117.006 1.698,-135.447 Z"
       style="fill:#000000;fill-opacity:1;fill-rule:nonzero;stroke:none"
       transform="matrix(1.3333333,0,0,-1.3333333,183.38667,91.062533)"
       clip-path="url(#clipPath4)" /></g><g
     id="layer1"><g
       style="display:none;fill:#000000"
       id="g8"
       transform="matrix(0.06891632,0,0,0.06415491,146.92545,108.94821)"><path
         d="M 126.03,744.104 H 72.219 c -17.312,0 -31.263,-13.802 -31.263,-30.72 v -488.11 c 0,-16.912 13.955,-30.72 31.263,-30.72 h 879.565 c 17.311,0 31.252,13.801 31.252,30.72 v 488.11 c 0,16.926 -13.937,30.72 -31.252,30.72 h -42.639 c -11.311,0 -20.48,9.169 -20.48,20.48 0,11.311 9.169,20.48 20.48,20.48 h 42.639 c 39.843,0 72.212,-32.038 72.212,-71.68 v -488.11 c 0,-39.635 -32.373,-71.68 -72.212,-71.68 H 72.219 c -39.833,0 -72.223,32.049 -72.223,71.68 v 488.11 c 0,39.639 32.387,71.68 72.223,71.68 h 53.811 c 11.311,0 20.48,-9.169 20.48,-20.48 0,-11.311 -9.169,-20.48 -20.48,-20.48 z"
         id="path1" /><path
         d="M 693.76,744.104 H 334.848 c -11.311,0 -20.48,9.169 -20.48,20.48 0,11.311 9.169,20.48 20.48,20.48 H 693.76 c 11.311,0 20.48,-9.169 20.48,-20.48 0,-11.311 -9.169,-20.48 -20.48,-20.48 z M 993.28,467.83 h -97.812 c -16.962,0 -30.72,-13.758 -30.72,-30.72 V 193.531 c 0,-11.311 -9.169,-20.48 -20.48,-20.48 -11.311,0 -20.48,9.169 -20.48,20.48 V 437.11 c 0,39.583 32.097,71.68 71.68,71.68 h 97.812 c 11.311,0 20.48,-9.169 20.48,-20.48 0,-11.311 -9.169,-20.48 -20.48,-20.48 z"
         id="path2-4" /><path
         d="m 884.53,764.584 c 0,-45.238 -36.679,-81.92 -81.92,-81.92 -45.234,0 -81.92,36.686 -81.92,81.92 0,45.241 36.682,81.92 81.92,81.92 45.245,0 81.92,-36.675 81.92,-81.92 z m 40.96,0 c 0,67.866 -55.014,122.88 -122.88,122.88 -67.859,0 -122.88,-55.017 -122.88,-122.88 0,-67.856 55.024,-122.88 122.88,-122.88 67.863,0 122.88,55.021 122.88,122.88 z m -611.12,0 c 0,-45.234 -36.686,-81.92 -81.92,-81.92 -45.241,0 -81.92,36.682 -81.92,81.92 0,45.245 36.675,81.92 81.92,81.92 45.238,0 81.92,-36.679 81.92,-81.92 z m 40.96,0 c 0,67.863 -55.021,122.88 -122.88,122.88 -67.866,0 -122.88,-55.014 -122.88,-122.88 0,-67.859 55.017,-122.88 122.88,-122.88 67.856,0 122.88,55.024 122.88,122.88 z"
         id="path3-6" /><path
         d="M 698.03,745.894 H 334.848 c -11.311,0 -20.48,9.169 -20.48,20.48 0,11.311 9.169,20.48 20.48,20.48 H 698.03 c 11.311,0 20.48,-9.169 20.48,-20.48 0,-11.311 -9.169,-20.48 -20.48,-20.48 z m 305.49,-156.07 h -84.746 c -11.311,0 -20.48,9.169 -20.48,20.48 0,11.311 9.169,20.48 20.48,20.48 h 84.746 c 11.311,0 20.48,-9.169 20.48,-20.48 0,-11.311 -9.169,-20.48 -20.48,-20.48 z M 725.76,468.085 V 292.633 h -102.4 v 175.452 z m 0,40.96 h -102.4 c -22.616,0 -40.96,-18.344 -40.96,-40.96 V 292.633 c 0,-22.624 18.342,-40.96 40.96,-40.96 h 102.4 c 22.618,0 40.96,18.336 40.96,40.96 v 175.452 c 0,22.616 -18.344,40.96 -40.96,40.96 z M 481.935,468.085 V 292.633 h -102.4 v 175.452 z m 0,40.96 h -102.4 c -22.616,0 -40.96,-18.344 -40.96,-40.96 V 292.633 c 0,-22.624 18.342,-40.96 40.96,-40.96 h 102.4 c 22.618,0 40.96,18.336 40.96,40.96 v 175.452 c 0,22.616 -18.344,40.96 -40.96,40.96 z M 238.11,468.085 V 292.633 h -102.4 v 175.452 z m 0,40.96 h -102.4 c -22.616,0 -40.96,-18.344 -40.96,-40.96 V 292.633 c 0,-22.624 18.342,-40.96 40.96,-40.96 h 102.4 c 22.618,0 40.96,18.336 40.96,40.96 v 175.452 c 0,22.616 -18.344,40.96 -40.96,40.96 z"
         id="path4-0" /></g><g
       id="g2"
       transform="matrix(0.11404955,0,0,0.22003857,153.89974,78.925235)"
       style="display:inline">
	<rect
   x="74.084"
   y="227.592"
   class="st0"
   width="21.893"
   height="41.591"
   id="rect1" />
	<rect
   x="416.02301"
   y="227.592"
   class="st0"
   width="21.893999"
   height="41.591"
   id="rect2" />
	<path
   class="st0"
   d="m 504.334,114.771 h -46.343 -8.032 -45.977 -8.029 -54.013 v 68.966 h -27.915 -8.032 -45.98 -8.026 -45.98 -8.032 -27.915 V 114.771 H 116.047 108.018 62.042 54.01 0 v 83.936 h 6.383 v 198.522 h 145.248 4.376 84.667 11.568 9.332 9.752 84.667 4.376 145.248 V 198.707 H 512 V 114.771 Z M 147.249,380.808 H 22.807 V 195.423 h 124.442 z m 6.387,-227.722 V 182.28 H 124.442 99.627 70.43 45.618 25.181 16.42 v -51.081 h 29.197 v 21.887 H 70.43 v -21.887 h 29.197 v 21.887 h 24.816 v -21.887 h 29.194 v 21.887 z m 197.975,227.722 h -73.613 v -44.191 c 0,-11.645 -9.443,-21.088 -21.091,-21.088 -11.646,0 -21.088,9.443 -21.088,21.088 v 44.191 h -75.43 v -116.42 h 191.222 z m 0,-158.75 v 29.194 h -29.194 -24.812 -29.198 -24.815 -20.436 -8.761 -24.812 -20.433 -8.761 v -51.088 h 29.194 v 21.894 h 24.812 v -21.894 h 29.197 v 21.894 h 24.815 v -21.894 h 29.198 v 21.894 h 24.812 v -21.894 h 29.194 z m 137.582,158.75 H 364.751 V 195.423 h 124.442 z m 6.387,-227.722 v 29.194 h -29.197 -24.813 -29.197 -24.815 -20.433 -8.761 v -51.081 h 29.194 v 21.887 h 24.815 v -21.887 h 29.197 v 21.887 h 24.812 v -21.887 h 29.197 v 21.887 z"
   id="path2-3" />
</g><g
       style="display:none;fill:#000000"
       id="g9"
       transform="matrix(0.54964908,0,0,0.5188104,147.12922,102.29467)"><polygon
         points="27.4,33.2 27.4,27.4 32.5,30.3 "
         id="polygon1" /><polygon
         points="37.5,33.2 37.5,27.4 32.5,30.3 "
         id="polygon2" /><circle
         cx="32.5"
         cy="13.5"
         r="10.1"
         id="circle2" /><circle
         cx="89.300003"
         cy="18.5"
         r="10.1"
         id="circle3" /><path
         d="m 120.2,65.1 c 0,0 0,-0.1 -0.1,-0.1 l -9.2,-25.3 c -0.4,-1.1 -1,-2.2 -1.7,-3.1 2.2,-4.4 2.3,-9.9 -0.4,-14.5 L 102.5,11.2 C 99.8,6.5 94.8,3.6 89.4,3.6 84,3.6 79,6.5 76.3,11.1 l -6.3,11 c -2.7,4.6 -2.6,10 -0.4,14.5 -0.7,0.9 -1.3,2 -1.7,3.1 l -5,13.9 -6.9,-19 C 54.3,29.8 49.9,26.3 45.2,26.3 h -5.1 c 0,0 -7.8,21.9 -7.6,22.1 0.2,0.2 -7.6,-22.1 -7.6,-22.1 h -5.1 c -7,0 -12.6,5.7 -12.6,12.6 v 30.9 c 0,2.4 2,4.4 4.4,4.4 2.4,0 4.4,-2 4.4,-4.4 V 41.4 c 0,-0.7 0.6,-1.3 1.3,-1.3 0.7,0 1.3,0.6 1.3,1.3 V 118 c 0,3.8 2.8,6.8 6.3,6.8 3.5,0 6.3,-3.1 6.3,-6.8 V 74.3 c 0,-0.7 0.6,-1.3 1.3,-1.3 0.7,0 1.3,0.6 1.3,1.3 V 118 c 0,3.8 2.8,6.8 6.3,6.8 3.5,0 6.3,-3.1 6.3,-6.8 V 41.4 c 0,-0.7 0.6,-1.3 1.3,-1.3 0.5,0 1,0.3 1.2,0.8 l 9.8,26.9 c 0.8,2.3 3.4,3.5 5.7,2.7 1.2,-0.4 2.1,-1.4 2.6,-2.5 v 0 l 8.4,-23 c 0.2,-0.5 0.7,-0.9 1.3,-0.8 v 0 h 0.4 c 0.4,5.8 1,11.4 1.9,16.9 -9.4,14.6 -15,36.8 -15.4,61.1 v 2.6 h 51.8 v -2.6 C 115,97.8 109.4,75.6 100,61.1 c 0.9,-5.4 1.6,-11.1 1.9,-16.9 h 0.4 v 0 c 0.6,0 1.1,0.3 1.3,0.8 l 8.4,23 v 0 c 0.8,2.3 3.4,3.5 5.7,2.6 2.1,-0.7 3.3,-3.2 2.5,-5.5 z m -7.5,57.2 H 66.1 c 0.4,-25 6.4,-47 15.5,-60.6 -1.5,-8.5 -2.4,-17.9 -2.4,-27.8 h 2.5 L 89,47.7 c 0,0.7 8.1,-13.8 8.1,-13.8 v 0 h 2.5 c -0.1,9.9 -0.9,19.3 -2.4,27.8 9.1,13.6 15.2,35.6 15.5,60.6 z m -5.3,-87.8 c -2.3,-2 -5.3,-3.2 -8.4,-3.2 H 79.8 c -3.1,0 -6.1,1.1 -8.4,3.2 -1.5,-3.5 -1.3,-7.6 0.7,-11.2 l 6.3,-10.9 c 2.2,-3.8 6.3,-6.3 10.9,-6.3 4.7,0 8.8,2.5 10.9,6.3 l 6.3,10.9 c 2.2,3.6 2.3,7.7 0.9,11.2 z"
         id="path3-2" /></g><path
       d="m 195.33419,147.78342 c -2.81663,2.34886 -6.25202,3.49337 -9.7184,3.23777 h -8.0633 v 15.69836 h -8.06331 v -44.15161 h 16.63587 c 3.31062,-0.2031 6.57117,1.00126 9.1667,3.38495 2.45253,2.74476 3.71338,6.61441 3.43752,10.54733 0.44221,4.16596 -0.81142,8.33386 -3.39508,11.2832 z m -6.36576,-15.89459 c -1.22647,-1.03953 -2.72498,-1.55904 -4.24384,-1.47172 h -7.1721 v 13.00019 h 7.1721 c 1.53287,0.0937 3.04283,-0.46457 4.24384,-1.56983 1.086,-1.31229 1.64109,-3.09454 1.52778,-4.90573 0.20031,-1.86762 -0.36497,-3.73621 -1.52778,-5.05291 z m 22.9592,-13.19643 c 0.48379,-1.21956 0.0297,-2.66234 -1.01853,-3.23778 l -28.30644,-15.20777 -28.4762,15.20777 c -1.06647,0.56907 -1.53203,2.02951 -1.03974,3.26232 0.49228,1.23281 1.75569,1.77097 2.82216,1.2019 v 0 l 26.69378,-14.27569 26.69378,14.22664 c 1.05502,0.55924 2.30314,0.0344 2.80094,-1.17739 z"
       id="path1-4"
       style="display:none;stroke-width:4.5628" /></g><g
     id="layer-MC1"
     style="display:none"><path
       id="path5"
       d="m 0,0 c 0,-9.182 -7.443,-16.625 -16.625,-16.625 -9.182,0 -16.625,7.443 -16.625,16.625 0,9.182 7.443,16.625 16.625,16.625 C -7.443,16.625 0,9.182 0,0"
       style="fill:#000000;fill-opacity:1;fill-rule:nonzero;stroke:none"
       transform="matrix(1.3333333,0,0,-1.3333333,205.2852,139.99933)"
       clip-path="url(#clipPath6)" /></g><g
     id="layer-MC2"
     style="display:none"><path
       id="path7"
       d="M 0,0 H 15.531 L 10.75,12.688 C 9.291,16.542 8.208,19.708 7.5,22.188 6.916,19.25 6.094,16.333 5.031,13.438 Z M -13.219,-18.813 4.375,27 h 6.531 l 18.75,-45.813 H 22.75 L 17.406,-4.938 H -1.75 l -5.031,-13.875 z"
       style="display:inline;fill:#000000;fill-opacity:1;fill-rule:nonzero;stroke:none"
       transform="matrix(1.3333333,0,0,-1.3333333,172.46747,140.2904)"
       clip-path="url(#clipPath8)" /></g><style
     type="text/css"
     id="style1">
	.st0{fill:#000000;}
</style></svg>
