<?xml version="1.0" encoding="UTF-8" standalone="no"?>
<svg
   fill="#000000"
   width="64px"
   height="64px"
   version="1.1"
   xml:space="preserve"
   viewBox="129.12 87.06 108.53 186.49"
   id="svg3"
   sodipodi:docname="google-marker-wedding.svg"
   inkscape:version="1.3.2 (091e20e, 2023-11-25)"
   xmlns:inkscape="http://www.inkscape.org/namespaces/inkscape"
   xmlns:sodipodi="http://sodipodi.sourceforge.net/DTD/sodipodi-0.dtd"
   xmlns="http://www.w3.org/2000/svg"
   xmlns:svg="http://www.w3.org/2000/svg"><defs
   id="defs3" /><sodipodi:namedview
   id="namedview3"
   pagecolor="#505050"
   bordercolor="#eeeeee"
   borderopacity="1"
   inkscape:showpageshadow="0"
   inkscape:pageopacity="0"
   inkscape:pagecheckerboard="0"
   inkscape:deskcolor="#505050"
   inkscape:zoom="3.6875"
   inkscape:cx="32"
   inkscape:cy="32"
   inkscape:window-width="1512"
   inkscape:window-height="945"
   inkscape:window-x="0"
   inkscape:window-y="37"
   inkscape:window-maximized="0"
   inkscape:current-layer="svg3" /> <path
   d="m 0,0 c -20.788,0 -37.701,-17.122 -37.701,-38.167 0,-5.203 3.103,-15.251 11.848,-26.446 13.075,-16.735 22.476,-41.346 25.852,-60.042 3.377,18.696 12.778,43.307 25.853,60.042 C 34.597,-53.418 37.7,-43.37 37.7,-38.167 37.7,-17.122 20.788,0 0,0 m 1.625,-136.87 h -3.251 l -0.073,1.423 c -0.949,18.441 -11.127,49.288 -26.517,68.987 -9.205,11.783 -12.485,22.341 -12.485,28.293 0,22.7 18.258,41.167 40.7,41.167 C 22.441,3 40.7,-15.467 40.7,-38.167 40.7,-44.119 37.42,-54.677 28.215,-66.46 12.825,-86.159 2.647,-117.006 1.698,-135.447 Z"
   style="display:inline;fill:#000000;fill-opacity:1;stroke:none"
   transform="matrix(1.3333333,0,0,-1.3333333,183.38667,91.062533)"
   id="path1"
   inkscape:label="path1" />  <path
   style="display:inline;fill:#ffffff;fill-opacity:1;stroke:#ffffff;stroke-width:0.724644;stroke-opacity:1"
   d="M 31.50074,55.552401 C 30.278245,50.008092 27.262176,42.172144 24.415527,37.144551 23.582985,35.674159 21.948809,33.146457 20.784025,31.527431 15.903827,24.744054 14.467045,20.998738 15.073184,16.640757 15.653998,12.46486 17.137253,9.5262422 20.202284,6.4790132 23.535782,3.1648748 27.274942,1.6271186 32,1.6271186 c 4.725058,0 8.464218,1.5377562 11.797717,4.8518946 3.06503,3.047229 4.548284,5.9858468 5.129098,10.1617438 0.597177,4.293534 -1.051696,8.61782 -5.645193,14.804922 -3.471616,4.676008 -6.484853,10.554465 -8.693684,16.960317 -0.970364,2.814164 -2.235621,7.3167 -2.50355,8.909117 -0.04641,0.275856 -0.309055,-0.517364 -0.583648,-1.762712 z"
   id="path12"
   transform="matrix(2.9139063,0,0,2.9139063,90.14,87.06)" /><g
   transform="matrix(0.54964909,0,0,0.5188104,147.12922,102.29467)"
   id="g3"
   style="display:inline"> <polygon
   points="27.4,33.2 27.4,27.4 32.5,30.3 "
   id="polygon1" /> <polygon
   points="37.5,33.2 37.5,27.4 32.5,30.3 "
   id="polygon2" /> <circle
   cx="32.5"
   cy="13.5"
   r="10.1"
   id="circle2" /> <circle
   cx="89.300003"
   cy="18.5"
   r="10.1"
   id="circle3" /> <path
   d="m 120.2,65.1 c 0,0 0,-0.1 -0.1,-0.1 l -9.2,-25.3 c -0.4,-1.1 -1,-2.2 -1.7,-3.1 2.2,-4.4 2.3,-9.9 -0.4,-14.5 L 102.5,11.2 C 99.8,6.5 94.8,3.6 89.4,3.6 84,3.6 79,6.5 76.3,11.1 l -6.3,11 c -2.7,4.6 -2.6,10 -0.4,14.5 -0.7,0.9 -1.3,2 -1.7,3.1 l -5,13.9 -6.9,-19 C 54.3,29.8 49.9,26.3 45.2,26.3 h -5.1 c 0,0 -7.8,21.9 -7.6,22.1 0.2,0.2 -7.6,-22.1 -7.6,-22.1 h -5.1 c -7,0 -12.6,5.7 -12.6,12.6 v 30.9 c 0,2.4 2,4.4 4.4,4.4 2.4,0 4.4,-2 4.4,-4.4 V 41.4 c 0,-0.7 0.6,-1.3 1.3,-1.3 0.7,0 1.3,0.6 1.3,1.3 V 118 c 0,3.8 2.8,6.8 6.3,6.8 3.5,0 6.3,-3.1 6.3,-6.8 V 74.3 c 0,-0.7 0.6,-1.3 1.3,-1.3 0.7,0 1.3,0.6 1.3,1.3 V 118 c 0,3.8 2.8,6.8 6.3,6.8 3.5,0 6.3,-3.1 6.3,-6.8 V 41.4 c 0,-0.7 0.6,-1.3 1.3,-1.3 0.5,0 1,0.3 1.2,0.8 l 9.8,26.9 c 0.8,2.3 3.4,3.5 5.7,2.7 1.2,-0.4 2.1,-1.4 2.6,-2.5 v 0 l 8.4,-23 c 0.2,-0.5 0.7,-0.9 1.3,-0.8 v 0 h 0.4 c 0.4,5.8 1,11.4 1.9,16.9 -9.4,14.6 -15,36.8 -15.4,61.1 v 2.6 h 51.8 v -2.6 C 115,97.8 109.4,75.6 100,61.1 c 0.9,-5.4 1.6,-11.1 1.9,-16.9 h 0.4 v 0 c 0.6,0 1.1,0.3 1.3,0.8 l 8.4,23 v 0 c 0.8,2.3 3.4,3.5 5.7,2.6 2.1,-0.7 3.3,-3.2 2.5,-5.5 z m -7.5,57.2 H 66.1 c 0.4,-25 6.4,-47 15.5,-60.6 -1.5,-8.5 -2.4,-17.9 -2.4,-27.8 h 2.5 L 89,47.7 c 0,0.7 8.1,-13.8 8.1,-13.8 v 0 h 2.5 c -0.1,9.9 -0.9,19.3 -2.4,27.8 9.1,13.6 15.2,35.6 15.5,60.6 z m -5.3,-87.8 c -2.3,-2 -5.3,-3.2 -8.4,-3.2 H 79.8 c -3.1,0 -6.1,1.1 -8.4,3.2 -1.5,-3.5 -1.3,-7.6 0.7,-11.2 l 6.3,-10.9 c 2.2,-3.8 6.3,-6.3 10.9,-6.3 4.7,0 8.8,2.5 10.9,6.3 l 6.3,10.9 c 2.2,3.6 2.3,7.7 0.9,11.2 z"
   id="path3" /> </g></svg>
