<svg width="64" height="64" xml:space="preserve" viewBox="0 0 108.53 186.49" xmlns="http://www.w3.org/2000/svg"><path style="fill:#fff;stroke:#fff;stroke-width:.724644" d="M31.358 54.847c-.635-2.779-2.297-7.754-3.7-11.08-2.073-4.917-4.072-8.366-8.063-13.915-3.968-5.518-5.288-9.995-4.309-14.614 1.332-6.282 6.385-11.582 12.571-13.185 2.124-.55 6.168-.548 8.307.004 2.731.705 5.658 2.397 7.705 4.452 2.133 2.142 3.351 4.06 4.335 6.824.914 2.569 1.026 6.888.234 9.04-.9 2.442-2.362 5.155-4.033 7.479-3.991 5.549-5.99 8.998-8.063 13.914-1.403 3.327-3.065 8.302-3.7 11.081-.265 1.156-.554 2.102-.642 2.102-.088 0-.377-.946-.642-2.102z" transform="matrix(2.9139 0 0 2.9139 -38.98 0)"/><path d="M0 0c-20.788 0-37.701-17.122-37.701-38.167 0-5.203 3.103-15.251 11.848-26.446 13.075-16.735 22.476-41.346 25.852-60.042 3.377 18.696 12.778 43.307 25.853 60.042C34.597-53.418 37.7-43.37 37.7-38.167 37.7-17.122 20.788 0 0 0m1.625-136.87h-3.251l-.073 1.423c-.949 18.441-11.127 49.288-26.517 68.987-9.205 11.783-12.485 22.341-12.485 28.293C-40.701-15.467-22.443 3-.001 3 22.441 3 40.7-15.467 40.7-38.167c0-5.952-3.28-16.51-12.485-28.293-15.39-19.699-25.568-50.546-26.517-68.987z" style="display:inline;fill:#000;fill-opacity:1;fill-rule:nonzero;stroke:none" transform="matrix(1.33333 0 0 -1.33333 54.268 4)" clip-path="url(#clipPath4)"/><path d="M126.03 744.104H72.219c-17.312 0-31.263-13.802-31.263-30.72v-488.11c0-16.912 13.955-30.72 31.263-30.72h879.565c17.311 0 31.252 13.801 31.252 30.72v488.11c0 16.926-13.937 30.72-31.252 30.72h-42.639c-11.311 0-20.48 9.169-20.48 20.48s9.169 20.48 20.48 20.48h42.639c39.843 0 72.212-32.038 72.212-71.68v-488.11c0-39.635-32.373-71.68-72.212-71.68H72.219c-39.833 0-72.223 32.049-72.223 71.68v488.11c0 39.639 32.387 71.68 72.223 71.68h53.811c11.311 0 20.48-9.169 20.48-20.48s-9.169-20.48-20.48-20.48z" style="display:inline" transform="matrix(.06892 0 0 .06415 17.807 21.886)"/><path d="M693.76 744.104H334.848c-11.311 0-20.48 9.169-20.48 20.48s9.169 20.48 20.48 20.48H693.76c11.311 0 20.48-9.169 20.48-20.48s-9.169-20.48-20.48-20.48zM993.28 467.83h-97.812c-16.962 0-30.72-13.758-30.72-30.72V193.531c0-11.311-9.169-20.48-20.48-20.48s-20.48 9.169-20.48 20.48V437.11c0 39.583 32.097 71.68 71.68 71.68h97.812c11.311 0 20.48-9.169 20.48-20.48s-9.169-20.48-20.48-20.48z" style="display:inline" transform="matrix(.06892 0 0 .06415 17.807 21.886)"/><path d="M884.53 764.584c0-45.238-36.679-81.92-81.92-81.92-45.234 0-81.92 36.686-81.92 81.92 0 45.241 36.682 81.92 81.92 81.92 45.245 0 81.92-36.675 81.92-81.92zm40.96 0c0 67.866-55.014 122.88-122.88 122.88-67.859 0-122.88-55.017-122.88-122.88 0-67.856 55.024-122.88 122.88-122.88 67.863 0 122.88 55.021 122.88 122.88zm-611.12 0c0-45.234-36.686-81.92-81.92-81.92-45.241 0-81.92 36.682-81.92 81.92 0 45.245 36.675 81.92 81.92 81.92 45.238 0 81.92-36.679 81.92-81.92zm40.96 0c0 67.863-55.021 122.88-122.88 122.88-67.866 0-122.88-55.014-122.88-122.88 0-67.859 55.017-122.88 122.88-122.88 67.856 0 122.88 55.024 122.88 122.88z" style="display:inline" transform="matrix(.06892 0 0 .06415 17.807 21.886)"/><path d="M698.03 745.894H334.848c-11.311 0-20.48 9.169-20.48 20.48s9.169 20.48 20.48 20.48H698.03c11.311 0 20.48-9.169 20.48-20.48s-9.169-20.48-20.48-20.48zm305.49-156.07h-84.746c-11.311 0-20.48 9.169-20.48 20.48s9.169 20.48 20.48 20.48h84.746c11.311 0 20.48-9.169 20.48-20.48s-9.169-20.48-20.48-20.48zM725.76 468.085V292.633h-102.4v175.452zm0 40.96h-102.4c-22.616 0-40.96-18.344-40.96-40.96V292.633c0-22.624 18.342-40.96 40.96-40.96h102.4c22.618 0 40.96 18.336 40.96 40.96v175.452c0 22.616-18.344 40.96-40.96 40.96zm-243.825-40.96V292.633h-102.4v175.452zm0 40.96h-102.4c-22.616 0-40.96-18.344-40.96-40.96V292.633c0-22.624 18.342-40.96 40.96-40.96h102.4c22.618 0 40.96 18.336 40.96 40.96v175.452c0 22.616-18.344 40.96-40.96 40.96zm-243.825-40.96V292.633h-102.4v175.452zm0 40.96h-102.4c-22.616 0-40.96-18.344-40.96-40.96V292.633c0-22.624 18.342-40.96 40.96-40.96h102.4c22.618 0 40.96 18.336 40.96 40.96v175.452c0 22.616-18.344 40.96-40.96 40.96z" style="display:inline" transform="matrix(.06892 0 0 .06415 17.807 21.886)"/></svg>