<svg width="64" height="64" xml:space="preserve" viewBox="129.12 87.06 108.53 186.49" xmlns="http://www.w3.org/2000/svg"><path style="background:#fff" d="M0 0c-20.788 0-37.701-17.122-37.701-38.167 0-5.203 3.103-15.251 11.848-26.446 13.075-16.735 22.476-41.346 25.852-60.042 3.377 18.696 12.778 43.307 25.853 60.042C34.597-53.418 37.7-43.37 37.7-38.167 37.7-17.122 20.788 0 0 0m1.625-136.87h-3.251l-.073 1.423c-.949 18.441-11.127 49.288-26.517 68.987-9.205 11.783-12.485 22.341-12.485 28.293C-40.701-15.467-22.443 3-.001 3 22.441 3 40.7-15.467 40.7-38.167c0-5.952-3.28-16.51-12.485-28.293-15.39-19.699-25.568-50.546-26.517-68.987z" transform="matrix(1.33333 0 0 -1.33333 183.387 91.063)"/><path style="fill:#fff;stroke:#fff;stroke-width:.724644" d="M31.5 55.552c-1.222-5.544-4.238-13.38-7.084-18.407-.833-1.47-2.467-3.999-3.632-5.618-4.88-6.783-6.317-10.528-5.71-14.886.58-4.176 2.063-7.115 5.128-10.162C23.536 3.165 27.275 1.627 32 1.627s8.464 1.538 11.798 4.852c3.065 3.047 4.548 5.986 5.129 10.162.597 4.293-1.052 8.618-5.645 14.805-3.472 4.676-6.485 10.554-8.694 16.96-.97 2.814-2.236 7.317-2.504 8.91-.046.275-.309-.518-.583-1.764z" transform="matrix(2.9139 0 0 2.9139 90.14 87.06)"/><path d="M195.334 147.783c-2.816 2.35-6.252 3.494-9.718 3.238h-8.064v15.699h-8.063v-44.152h16.636c3.31-.203 6.571 1.001 9.167 3.385 2.452 2.745 3.713 6.614 3.437 10.547.442 4.166-.811 8.334-3.395 11.283zm-6.366-15.894c-1.226-1.04-2.725-1.56-4.243-1.472h-7.173v13h7.173c1.532.094 3.042-.464 4.243-1.57 1.086-1.312 1.642-3.094 1.528-4.905.2-1.868-.365-3.736-1.528-5.053zm22.96-13.197c.483-1.22.03-2.662-1.019-3.237l-28.306-15.208-28.477 15.208c-1.066.569-1.532 2.03-1.04 3.262.493 1.233 1.756 1.77 2.823 1.202l26.694-14.276 26.693 14.227c1.055.559 2.304.034 2.801-1.178z" style="display:inline"/></svg>