<svg width="64" height="64" xml:space="preserve" viewBox="129.12 87.06 108.53 186.49" xmlns="http://www.w3.org/2000/svg"><path d="M0 0c-20.788 0-37.701-17.122-37.701-38.167 0-5.203 3.103-15.251 11.848-26.446 13.075-16.735 22.476-41.346 25.852-60.042 3.377 18.696 12.778 43.307 25.853 60.042C34.597-53.418 37.7-43.37 37.7-38.167 37.7-17.122 20.788 0 0 0m1.625-136.87h-3.251l-.073 1.423c-.949 18.441-11.127 49.288-26.517 68.987-9.205 11.783-12.485 22.341-12.485 28.293C-40.701-15.467-22.443 3-.001 3 22.441 3 40.7-15.467 40.7-38.167c0-5.952-3.28-16.51-12.485-28.293-15.39-19.699-25.568-50.546-26.517-68.987z" style="display:inline;fill:#000;fill-opacity:1;stroke:none" transform="matrix(1.33333 0 0 -1.33333 183.387 91.063)"/><path style="display:inline;fill:#fff;fill-opacity:1;stroke:#fff;stroke-width:.724644;stroke-opacity:1" d="M31.5 55.552c-1.222-5.544-4.238-13.38-7.084-18.407-.833-1.47-2.467-3.999-3.632-5.618-4.88-6.783-6.317-10.528-5.71-14.886.58-4.176 2.063-7.115 5.128-10.162C23.536 3.165 27.275 1.627 32 1.627s8.464 1.538 11.798 4.852c3.065 3.047 4.548 5.986 5.129 10.162.597 4.293-1.052 8.618-5.645 14.805-3.472 4.676-6.485 10.554-8.694 16.96-.97 2.814-2.236 7.317-2.504 8.91-.046.275-.309-.518-.583-1.764z" transform="matrix(2.9139 0 0 2.9139 90.14 87.06)"/><g transform="matrix(.54965 0 0 .51881 147.13 102.295)" style="display:inline"><path d="M27.4 33.2v-5.8l5.1 2.9zM37.5 33.2v-5.8l-5 2.9z"/><circle cx="32.5" cy="13.5" r="10.1"/><circle cx="89.3" cy="18.5" r="10.1"/><path d="M120.2 65.1s0-.1-.1-.1l-9.2-25.3c-.4-1.1-1-2.2-1.7-3.1 2.2-4.4 2.3-9.9-.4-14.5l-6.3-10.9c-2.7-4.7-7.7-7.6-13.1-7.6-5.4 0-10.4 2.9-13.1 7.5l-6.3 11c-2.7 4.6-2.6 10-.4 14.5-.7.9-1.3 2-1.7 3.1l-5 13.9-6.9-19c-1.7-4.8-6.1-8.3-10.8-8.3h-5.1s-7.8 21.9-7.6 22.1c.2.2-7.6-22.1-7.6-22.1h-5.1c-7 0-12.6 5.7-12.6 12.6v30.9c0 2.4 2 4.4 4.4 4.4 2.4 0 4.4-2 4.4-4.4V41.4c0-.7.6-1.3 1.3-1.3.7 0 1.3.6 1.3 1.3V118c0 3.8 2.8 6.8 6.3 6.8s6.3-3.1 6.3-6.8V74.3c0-.7.6-1.3 1.3-1.3.7 0 1.3.6 1.3 1.3V118c0 3.8 2.8 6.8 6.3 6.8s6.3-3.1 6.3-6.8V41.4c0-.7.6-1.3 1.3-1.3.5 0 1 .3 1.2.8l9.8 26.9c.8 2.3 3.4 3.5 5.7 2.7 1.2-.4 2.1-1.4 2.6-2.5l8.4-23c.2-.5.7-.9 1.3-.8h.4c.4 5.8 1 11.4 1.9 16.9-9.4 14.6-15 36.8-15.4 61.1v2.6h51.8v-2.6c-.4-24.4-6-46.6-15.4-61.1.9-5.4 1.6-11.1 1.9-16.9h.4c.6 0 1.1.3 1.3.8l8.4 23c.8 2.3 3.4 3.5 5.7 2.6 2.1-.7 3.3-3.2 2.5-5.5zm-7.5 57.2H66.1c.4-25 6.4-47 15.5-60.6-1.5-8.5-2.4-17.9-2.4-27.8h2.5L89 47.7c0 .7 8.1-13.8 8.1-13.8h2.5c-.1 9.9-.9 19.3-2.4 27.8 9.1 13.6 15.2 35.6 15.5 60.6zm-5.3-87.8c-2.3-2-5.3-3.2-8.4-3.2H79.8c-3.1 0-6.1 1.1-8.4 3.2-1.5-3.5-1.3-7.6.7-11.2l6.3-10.9c2.2-3.8 6.3-6.3 10.9-6.3 4.7 0 8.8 2.5 10.9 6.3l6.3 10.9c2.2 3.6 2.3 7.7.9 11.2z"/></g></svg>