<?xml version="1.0" encoding="UTF-8" standalone="no"?>
<svg
   fill="#000000"
   width="64px"
   height="64px"
   version="1.1"
   id="svg1"
   xml:space="preserve"
   viewBox="129.12 87.06 108.53 186.49"
   sodipodi:docname="google-marker-parking.svg"
   inkscape:version="1.3.2 (091e20e, 2023-11-25)"
   xmlns:inkscape="http://www.inkscape.org/namespaces/inkscape"
   xmlns:sodipodi="http://sodipodi.sourceforge.net/DTD/sodipodi-0.dtd"
   xmlns="http://www.w3.org/2000/svg"
   xmlns:svg="http://www.w3.org/2000/svg"><defs
   id="defs2" /><sodipodi:namedview
   id="namedview2"
   pagecolor="#505050"
   bordercolor="#eeeeee"
   borderopacity="1"
   inkscape:showpageshadow="0"
   inkscape:pageopacity="0"
   inkscape:pagecheckerboard="0"
   inkscape:deskcolor="#505050"
   inkscape:zoom="3.6875"
   inkscape:cx="32"
   inkscape:cy="32"
   inkscape:window-width="1512"
   inkscape:window-height="945"
   inkscape:window-x="0"
   inkscape:window-y="37"
   inkscape:window-maximized="0"
   inkscape:current-layer="svg1" /> <path
   style="background:#ffffff"
   d="m 0,0 c -20.788,0 -37.701,-17.122 -37.701,-38.167 0,-5.203 3.103,-15.251 11.848,-26.446 13.075,-16.735 22.476,-41.346 25.852,-60.042 3.377,18.696 12.778,43.307 25.853,60.042 C 34.597,-53.418 37.7,-43.37 37.7,-38.167 37.7,-17.122 20.788,0 0,0 m 1.625,-136.87 h -3.251 l -0.073,1.423 c -0.949,18.441 -11.127,49.288 -26.517,68.987 -9.205,11.783 -12.485,22.341 -12.485,28.293 0,22.7 18.258,41.167 40.7,41.167 C 22.441,3 40.7,-15.467 40.7,-38.167 40.7,-44.119 37.42,-54.677 28.215,-66.46 12.825,-86.159 2.647,-117.006 1.698,-135.447 Z"
   transform="matrix(1.3333333,0,0,-1.3333333,183.38667,91.062533)"
   id="path1" /> <path
   style="fill:#ffffff;stroke:#ffffff;stroke-width:0.724644"
   d="M 31.50074,55.552401 C 30.278245,50.008092 27.262176,42.172144 24.415527,37.144551 23.582985,35.674159 21.948809,33.146457 20.784025,31.527431 15.903827,24.744054 14.467045,20.998738 15.073184,16.640757 15.653998,12.46486 17.137253,9.5262422 20.202284,6.4790132 23.535782,3.1648748 27.274942,1.6271186 32,1.6271186 c 4.725058,0 8.464218,1.5377562 11.797717,4.8518946 3.06503,3.047229 4.548284,5.9858468 5.129098,10.1617438 0.597177,4.293534 -1.051696,8.61782 -5.645193,14.804922 -3.471616,4.676008 -6.484853,10.554465 -8.693684,16.960317 -0.970364,2.814164 -2.235621,7.3167 -2.50355,8.909117 -0.04641,0.275856 -0.309055,-0.517364 -0.583648,-1.762712 z"
   id="path3"
   transform="matrix(2.9139063,0,0,2.9139063,90.14,87.06)" /><path
   d="m 195.33419,147.78342 c -2.81663,2.34886 -6.25202,3.49337 -9.7184,3.23777 h -8.0633 v 15.69836 h -8.06331 v -44.15161 h 16.63587 c 3.31062,-0.2031 6.57117,1.00126 9.1667,3.38495 2.45253,2.74476 3.71338,6.61441 3.43752,10.54733 0.44221,4.16596 -0.81142,8.33386 -3.39508,11.2832 z m -6.36576,-15.89459 c -1.22647,-1.03953 -2.72498,-1.55904 -4.24384,-1.47172 h -7.1721 v 13.00019 h 7.1721 c 1.53287,0.0937 3.04283,-0.46457 4.24384,-1.56983 1.086,-1.31229 1.64109,-3.09454 1.52778,-4.90573 0.20031,-1.86762 -0.36497,-3.73621 -1.52778,-5.05291 z m 22.9592,-13.19643 c 0.48379,-1.21956 0.0297,-2.66234 -1.01853,-3.23778 l -28.30644,-15.20777 -28.4762,15.20777 c -1.06647,0.56907 -1.53203,2.02951 -1.03974,3.26232 0.49228,1.23281 1.75569,1.77097 2.82216,1.2019 v 0 l 26.69378,-14.27569 26.69378,14.22664 c 1.05502,0.55924 2.30314,0.0344 2.80094,-1.17739 z"
   id="path2"
   style="display:inline" /> </svg>
