<?xml version="1.0" encoding="UTF-8" standalone="no"?>
<svg
   fill="#000000"
   width="64px"
   height="64px"
   version="1.1"
   xml:space="preserve"
   viewBox="0 0 108.53 186.49"
   id="svg6"
   sodipodi:docname="google-marker-bus.svg"
   inkscape:version="1.3.2 (091e20e, 2023-11-25)"
   xmlns:inkscape="http://www.inkscape.org/namespaces/inkscape"
   xmlns:sodipodi="http://sodipodi.sourceforge.net/DTD/sodipodi-0.dtd"
   xmlns="http://www.w3.org/2000/svg"
   xmlns:svg="http://www.w3.org/2000/svg"><defs
   id="defs6" /><sodipodi:namedview
   id="namedview6"
   pagecolor="#505050"
   bordercolor="#eeeeee"
   borderopacity="1"
   inkscape:showpageshadow="0"
   inkscape:pageopacity="0"
   inkscape:pagecheckerboard="0"
   inkscape:deskcolor="#505050"
   inkscape:zoom="3.6875"
   inkscape:cx="32"
   inkscape:cy="32"
   inkscape:window-width="1320"
   inkscape:window-height="769"
   inkscape:window-x="0"
   inkscape:window-y="38"
   inkscape:window-maximized="0"
   inkscape:current-layer="svg6" /> <path
   style="fill:#ffffff;stroke:#ffffff;stroke-width:0.724644"
   d="M 31.358485,54.847458 C 30.722827,52.06838 29.061463,47.092795 27.658488,43.766419 25.584688,38.849557 23.586334,35.400944 19.595324,29.851615 15.627078,24.333934 14.306945,19.857152 15.286097,15.238337 16.61789,8.9560586 21.670899,3.6563652 27.857439,2.0532716 c 2.123832,-0.5503399 6.167162,-0.5483712 8.306806,0.00404 2.730988,0.7050894 5.657949,2.3963097 7.704677,4.4518192 2.132773,2.1419259 3.351509,4.0604022 4.33494,6.8238532 0.91411,2.568661 1.025798,6.88782 0.23376,9.039892 -0.898813,2.442187 -2.3616,5.154798 -4.032947,7.478734 -3.991009,5.549329 -5.989363,8.997942 -8.063163,13.914804 -1.402975,3.326376 -3.064339,8.301961 -3.699997,11.081039 -0.264395,1.155937 -0.553077,2.1017 -0.641515,2.1017 -0.08844,0 -0.37712,-0.945763 -0.641515,-2.101695 z"
   id="path6"
   transform="matrix(2.9139063,0,0,2.9139063,-38.98,0)" /><g
   transform="translate(-129.11867,-87.062531)"
   id="g1"> <path
   d="m 0,0 c -20.788,0 -37.701,-17.122 -37.701,-38.167 0,-5.203 3.103,-15.251 11.848,-26.446 13.075,-16.735 22.476,-41.346 25.852,-60.042 3.377,18.696 12.778,43.307 25.853,60.042 C 34.597,-53.418 37.7,-43.37 37.7,-38.167 37.7,-17.122 20.788,0 0,0 m 1.625,-136.87 h -3.251 l -0.073,1.423 c -0.949,18.441 -11.127,49.288 -26.517,68.987 -9.205,11.783 -12.485,22.341 -12.485,28.293 0,22.7 18.258,41.167 40.7,41.167 C 22.441,3 40.7,-15.467 40.7,-38.167 40.7,-44.119 37.42,-54.677 28.215,-66.46 12.825,-86.159 2.647,-117.006 1.698,-135.447 Z"
   style="display:inline;fill:#000000;fill-opacity:1;fill-rule:nonzero;stroke:none"
   transform="matrix(1.3333333,0,0,-1.3333333,183.38667,91.062533)"
   clip-path="url(#clipPath4)"
   id="path1" /> </g> <g
   transform="translate(-129.11867,-87.06253)"
   id="g6"> <g
   transform="matrix(0.06891632,0,0,0.06415491,146.92545,108.94821)"
   id="g5"> <path
   d="M 126.03,744.104 H 72.219 c -17.312,0 -31.263,-13.802 -31.263,-30.72 v -488.11 c 0,-16.912 13.955,-30.72 31.263,-30.72 h 879.565 c 17.311,0 31.252,13.801 31.252,30.72 v 488.11 c 0,16.926 -13.937,30.72 -31.252,30.72 h -42.639 c -11.311,0 -20.48,9.169 -20.48,20.48 0,11.311 9.169,20.48 20.48,20.48 h 42.639 c 39.843,0 72.212,-32.038 72.212,-71.68 v -488.11 c 0,-39.635 -32.373,-71.68 -72.212,-71.68 H 72.219 c -39.833,0 -72.223,32.049 -72.223,71.68 v 488.11 c 0,39.639 32.387,71.68 72.223,71.68 h 53.811 c 11.311,0 20.48,-9.169 20.48,-20.48 0,-11.311 -9.169,-20.48 -20.48,-20.48 z"
   id="path2"
   style="display:inline" /> <path
   d="M 693.76,744.104 H 334.848 c -11.311,0 -20.48,9.169 -20.48,20.48 0,11.311 9.169,20.48 20.48,20.48 H 693.76 c 11.311,0 20.48,-9.169 20.48,-20.48 0,-11.311 -9.169,-20.48 -20.48,-20.48 z M 993.28,467.83 h -97.812 c -16.962,0 -30.72,-13.758 -30.72,-30.72 V 193.531 c 0,-11.311 -9.169,-20.48 -20.48,-20.48 -11.311,0 -20.48,9.169 -20.48,20.48 V 437.11 c 0,39.583 32.097,71.68 71.68,71.68 h 97.812 c 11.311,0 20.48,-9.169 20.48,-20.48 0,-11.311 -9.169,-20.48 -20.48,-20.48 z"
   id="path3"
   style="display:inline" /> <path
   d="m 884.53,764.584 c 0,-45.238 -36.679,-81.92 -81.92,-81.92 -45.234,0 -81.92,36.686 -81.92,81.92 0,45.241 36.682,81.92 81.92,81.92 45.245,0 81.92,-36.675 81.92,-81.92 z m 40.96,0 c 0,67.866 -55.014,122.88 -122.88,122.88 -67.859,0 -122.88,-55.017 -122.88,-122.88 0,-67.856 55.024,-122.88 122.88,-122.88 67.863,0 122.88,55.021 122.88,122.88 z m -611.12,0 c 0,-45.234 -36.686,-81.92 -81.92,-81.92 -45.241,0 -81.92,36.682 -81.92,81.92 0,45.245 36.675,81.92 81.92,81.92 45.238,0 81.92,-36.679 81.92,-81.92 z m 40.96,0 c 0,67.863 -55.021,122.88 -122.88,122.88 -67.866,0 -122.88,-55.014 -122.88,-122.88 0,-67.859 55.017,-122.88 122.88,-122.88 67.856,0 122.88,55.024 122.88,122.88 z"
   id="path4"
   style="display:inline" /> <path
   d="M 698.03,745.894 H 334.848 c -11.311,0 -20.48,9.169 -20.48,20.48 0,11.311 9.169,20.48 20.48,20.48 H 698.03 c 11.311,0 20.48,-9.169 20.48,-20.48 0,-11.311 -9.169,-20.48 -20.48,-20.48 z m 305.49,-156.07 h -84.746 c -11.311,0 -20.48,9.169 -20.48,20.48 0,11.311 9.169,20.48 20.48,20.48 h 84.746 c 11.311,0 20.48,-9.169 20.48,-20.48 0,-11.311 -9.169,-20.48 -20.48,-20.48 z M 725.76,468.085 V 292.633 h -102.4 v 175.452 z m 0,40.96 h -102.4 c -22.616,0 -40.96,-18.344 -40.96,-40.96 V 292.633 c 0,-22.624 18.342,-40.96 40.96,-40.96 h 102.4 c 22.618,0 40.96,18.336 40.96,40.96 v 175.452 c 0,22.616 -18.344,40.96 -40.96,40.96 z M 481.935,468.085 V 292.633 h -102.4 v 175.452 z m 0,40.96 h -102.4 c -22.616,0 -40.96,-18.344 -40.96,-40.96 V 292.633 c 0,-22.624 18.342,-40.96 40.96,-40.96 h 102.4 c 22.618,0 40.96,18.336 40.96,40.96 v 175.452 c 0,22.616 -18.344,40.96 -40.96,40.96 z M 238.11,468.085 V 292.633 h -102.4 v 175.452 z m 0,40.96 h -102.4 c -22.616,0 -40.96,-18.344 -40.96,-40.96 V 292.633 c 0,-22.624 18.342,-40.96 40.96,-40.96 h 102.4 c 22.618,0 40.96,18.336 40.96,40.96 v 175.452 c 0,22.616 -18.344,40.96 -40.96,40.96 z"
   id="path5"
   style="display:inline" /> </g> </g></svg>
