<?xml version="1.0" encoding="UTF-8" standalone="no"?>
<!DOCTYPE svg PUBLIC "-//W3C//DTD SVG 1.1//EN" "http://www.w3.org/Graphics/SVG/1.1/DTD/svg11.dtd">
<svg width="100%" height="100%" viewBox="0 0 420 281" version="1.1" xmlns="http://www.w3.org/2000/svg" xmlns:xlink="http://www.w3.org/1999/xlink" xml:space="preserve" xmlns:serif="http://www.serif.com/" style="fill-rule:evenodd;clip-rule:evenodd;stroke-miterlimit:10;">
    <g transform="matrix(1,0,0,1,-12341.7,-24560.2)">
        <g transform="matrix(5.55556,0,0,5.55556,11373,24312.9)">
            <g transform="matrix(1,0,0,1,218.077,47.7133)">
                <path d="M0,13.415C0,13.415 -0.914,12.329 -1.379,7.932C-1.845,3.535 -4.414,-0.465 -10.587,-1.103C-16.759,-1.741 -18.759,2.087 -19.104,3.277C-19.449,4.466 -20.466,8.88 -15.552,11.07C-10.638,13.26 -9.311,12.57 -7.207,13.001C-5.104,13.432 -2.641,15.156 -2.641,15.156" style="fill:white;fill-rule:nonzero;stroke:rgb(132,52,63);stroke-width:0.4px;"/>
            </g>
        </g>
        <g transform="matrix(5.55556,0,0,5.55556,11373,24312.9)">
            <g transform="matrix(1,0,0,1,219.974,58.3527)">
                <path d="M0,2.948C0,2.948 1.164,0.879 2.224,-1.294C3.285,-3.466 4.319,-5.82 8.328,-5.846C12.337,-5.871 16.113,-6.518 17.949,-4.501C19.785,-2.483 20.044,1.293 18.415,3.983C16.785,6.672 14.794,8.638 12.518,9.052C10.242,9.466 6.595,9.336 4.914,8.845C3.233,8.353 0.052,5.741 0.052,5.741" style="fill:white;fill-rule:nonzero;stroke:rgb(132,52,63);stroke-width:0.4px;"/>
            </g>
        </g>
        <g transform="matrix(5.55556,0,0,5.55556,11373,24312.9)">
            <g transform="matrix(1,0,0,1,216.956,82.0167)">
                <path d="M0,-19.147C0,-19.147 -5.311,-19.147 -9.587,-18.837C-13.863,-18.526 -15.665,-15.88 -16.363,-14.871C-17.061,-13.862 -20.579,-13.009 -21.329,-11.923C-22.079,-10.836 -21.38,-7.836 -22.518,-4.629C-23.656,-1.422 -28.208,-3.543 -32.657,-6.595C-37.105,-9.647 -41.605,-8.353 -40.364,-8.198C-39.122,-8.043 -36.071,-5.25 -36.071,-5.25C-36.071,-5.25 -39.122,-4.681 -39.795,-3.284C-39.795,-3.284 -36.174,-3.879 -34.26,-3.439C-32.346,-3 -31.208,-0.982 -27.95,-0.543C-24.691,-0.103 -20.785,0 -18.277,-2.146C-15.768,-4.293 -14.682,-11.457 -13.673,-12.957C-12.664,-14.457 -9.25,-17.25 -6.897,-17.199C-4.543,-17.147 0.356,-17.22 0.356,-17.22" style="fill:white;fill-rule:nonzero;stroke:rgb(132,52,63);stroke-width:0.4px;"/>
            </g>
        </g>
        <g transform="matrix(5.55556,0,0,5.55556,11373,24312.9)">
            <g transform="matrix(1,0,0,1,218.767,92.9654)">
                <path d="M0,-27.837C0,-27.837 0.224,-24.682 1.328,-23.061C2.431,-21.44 3.621,-21.63 3.742,-17.13C3.862,-12.629 3.181,-9.246 3.595,-7.396C4.009,-5.547 5.819,-2.793 8.819,-1.862C11.82,-0.931 17.328,-2.275 21.182,-1.965C25.036,-1.655 29.148,0 29.148,0C29.148,0 27.337,-4.267 24.699,-4.396C24.699,-4.396 26.381,-6.931 28.734,-6.517C28.734,-6.517 24.13,-9.31 18.234,-6.672C12.337,-4.034 8.612,-7.552 8.199,-8.276C7.785,-9 7.009,-12.362 7.785,-15.569C8.561,-18.776 9.647,-20.742 6.492,-23.535C3.336,-26.328 3.834,-26.962 3.834,-26.962" style="fill:white;fill-rule:nonzero;stroke:rgb(132,52,63);stroke-width:0.4px;"/>
            </g>
        </g>
        <g transform="matrix(5.55556,0,0,5.55556,11373,24312.9)">
            <g transform="matrix(1,0,0,1,220.448,54.4206)">
                <path d="M0,8.587C0,8.587 2.371,9.018 4.681,7.552C6.992,6.087 8.699,3.466 10.888,2.276C13.078,1.087 14.027,-0.431 15.992,0.345" style="fill:none;fill-rule:nonzero;stroke:rgb(132,52,63);stroke-width:0.4px;"/>
            </g>
        </g>
        <g transform="matrix(5.55556,0,0,5.55556,11373,24312.9)">
            <g transform="matrix(1,0,0,1,237.571,66.2319)">
                <path d="M0,-9.766C0,-9.766 1.369,-8.121 -0.889,-4.983C-3.148,-1.845 -7.441,0 -13.131,-1.397C-13.131,-1.397 -14.614,-1.948 -15.787,-3.19" style="fill:none;fill-rule:nonzero;stroke:rgb(132,52,63);stroke-width:0.4px;"/>
            </g>
        </g>
        <g transform="matrix(5.55556,0,0,5.55556,11373,24312.9)">
            <g transform="matrix(1,0,0,1,221.767,55.4108)">
                <path d="M0,6.252C0,6.252 1.757,3.034 3.498,2.069C5.24,1.103 8.063,0 8.063,0" style="fill:none;fill-rule:nonzero;stroke:rgb(132,52,63);stroke-width:0.4px;"/>
            </g>
        </g>
        <g transform="matrix(5.55556,0,0,5.55556,11373,24312.9)">
            <g transform="matrix(1,0,0,1,216.146,47.7717)">
                <path d="M0,13.46C0,13.46 -3.276,10.787 -4.69,7.011C-6.104,3.235 -8.589,0 -12.762,1.156" style="fill:white;fill-rule:nonzero;stroke:rgb(132,52,63);stroke-width:0.4px;"/>
            </g>
        </g>
        <g transform="matrix(5.55556,0,0,5.55556,11373,24312.9)">
            <g transform="matrix(1,0,0,1,202.663,60.2665)">
                <path d="M0,-10.794C0,-10.794 -1.828,-9.19 -1.138,-6.277C-0.448,-3.363 1.983,-2.345 4.448,-2.069C6.914,-1.794 8.931,-1.656 10.725,0" style="fill:white;fill-rule:nonzero;stroke:rgb(132,52,63);stroke-width:0.4px;"/>
            </g>
        </g>
        <g transform="matrix(5.55556,0,0,5.55556,11373,24312.9)">
            <g transform="matrix(1,0,0,1,211.801,59.9899)">
                <path d="M0,-8C0,-8 1.035,-7.897 2.173,-5.896C3.31,-3.896 4,-1.103 4.517,0" style="fill:white;fill-rule:nonzero;stroke:rgb(132,52,63);stroke-width:0.4px;"/>
            </g>
        </g>
        <g transform="matrix(5.55556,0,0,5.55556,11373,24312.9)">
            <g transform="matrix(-0.905446,0.424462,0.424462,0.905446,227.272,77.7689)">
                <path d="M0.947,-12.005C0.947,-12.005 0.926,-10.709 0.555,-9.307C0.184,-7.905 1.006,-7.491 0.947,-6.52C0.888,-5.551 0.381,-5.169 0.77,-4.095C1.159,-3.021 1.555,-2.178 3.142,-0.009" style="fill:white;fill-rule:nonzero;stroke:rgb(132,52,63);stroke-width:0.4px;"/>
            </g>
        </g>
        <g transform="matrix(5.55556,0,0,5.55556,11373,24312.9)">
            <g transform="matrix(0.991439,0.130572,0.130572,-0.991439,226.012,86.5886)">
                <path d="M-0.215,-0.774C-0.215,-0.774 1.712,-4.603 11.472,-0.774" style="fill:white;fill-rule:nonzero;stroke:rgb(132,52,63);stroke-width:0.4px;"/>
            </g>
        </g>
        <g transform="matrix(5.55556,0,0,5.55556,11373,24312.9)">
            <g transform="matrix(1,0,0,1,195.477,69.2151)">
                <path d="M0,10.345C0,10.345 0.759,8.655 1.966,6.552C3.173,4.448 3.086,3.69 3.345,2.552C3.604,1.414 4.897,0.793 5.69,0" style="fill:white;fill-rule:nonzero;stroke:rgb(132,52,63);stroke-width:0.4px;"/>
            </g>
        </g>
        <g transform="matrix(5.55556,0,0,5.55556,11373,24312.9)">
            <g transform="matrix(-0.997483,0.0709111,0.0709111,0.997483,219.068,65.2498)">
                <path d="M0.291,-4.161C0.291,-4.161 2.101,-3.512 2.062,-1.876C2.022,-0.239 1.218,-0.066 0.291,-0.142C-0.634,-0.219 -1.43,-1.298 -1.536,-2.139C-1.655,-3.09 -1.896,-3.928 0.291,-4.161Z" style="fill:white;fill-rule:nonzero;stroke:rgb(132,52,63);stroke-width:0.4px;"/>
            </g>
        </g>
    </g>
</svg>
