<?xml version="1.0" encoding="UTF-8" standalone="no"?>
<!DOCTYPE svg PUBLIC "-//W3C//DTD SVG 1.1//EN" "http://www.w3.org/Graphics/SVG/1.1/DTD/svg11.dtd">
<svg width="100%" height="100%" viewBox="0 0 189 175" version="1.1" xmlns="http://www.w3.org/2000/svg" xmlns:xlink="http://www.w3.org/1999/xlink" xml:space="preserve" xmlns:serif="http://www.serif.com/" style="fill-rule:evenodd;clip-rule:evenodd;stroke-miterlimit:10;">
    <g transform="matrix(1,0,0,1,-11652.5,-25541.4)">
        <g transform="matrix(5.55556,0,0,5.55556,11373,24312.9)">
            <g transform="matrix(1,0,0,1,74.4119,238.615)">
                <path d="M0,-3.6C2.09,-4 1.955,-5.122 2.681,-5.787C3.407,-6.453 4.113,-6.482 4.113,-6.482C4.113,-6.482 4.168,-6.533 4.141,-6.508C4.113,-6.482 2.182,-7.586 1.258,-7.443C0.333,-7.3 -0.264,-6.898 -0.925,-6.826C-1.585,-6.754 -3.67,-7.595 -2.659,-6.983C-1.649,-6.371 -1.02,-7.129 -1.02,-7.129C0.933,-9.328 -1.959,-12.054 -3.994,-13.472C-6.03,-14.89 -9.43,-15.887 -12.697,-15.281C-15.965,-14.674 -15.356,-12.315 -15.105,-11.553C-14.855,-10.791 -13.104,-10.461 -13.892,-11.038C-14.68,-11.615 -15.622,-10.868 -15.668,-10.362C-15.715,-9.855 -15.293,-8.591 -13.137,-7.378C-10.98,-6.166 -9.975,-7.137 -10.611,-7.762C-11.248,-8.387 -12.219,-7.638 -12.219,-7.638C-13.906,-4.648 -8.805,-4.353 -8.805,-4.353C-8.805,-4.353 -10.389,-3.017 -12.978,-3.377C-15.567,-3.736 -16.958,-5.871 -19.027,-6.122C-21.097,-6.373 -22.174,-5.394 -22.08,-4.989C-21.985,-4.584 -21.389,-3.667 -19.016,-3.225C-19.016,-3.225 -21.749,-3.53 -21.825,-1.767C-21.9,-0.003 -18.818,0.512 -18.818,0.512C-18.818,0.512 -21.333,0.386 -21.212,1.843C-21.091,3.299 -19.38,3.335 -18.514,2.998C-17.649,2.661 -14.025,0.81 -12.709,0.339C-11.394,-0.133 -10.19,-0.053 -9.913,0.38C-9.636,0.813 -9.624,1.608 -11.363,2.263C-13.102,2.918 -12.291,1.495 -11.567,1.414C-10.843,1.332 -10.222,2.217 -10.88,2.707C-11.538,3.197 -14.552,4.315 -14.58,5.791C-14.608,7.267 -13.259,7.845 -11.536,7.188C-11.536,7.188 -10.559,6.868 -10.53,6.805C-10.502,6.742 -13.776,7.548 -13.908,9.557C-14.04,11.566 -11.981,12.287 -10.224,11.718C-8.468,11.148 -2.634,8.667 -0.678,5.689C1.278,2.712 1.577,-3.463 -3.269,-3.73" style="fill:none;fill-rule:nonzero;stroke:rgb(35,31,32);stroke-width:0.4px;"/>
            </g>
        </g>
        <g transform="matrix(5.55556,0,0,5.55556,11373,24312.9)">
            <g transform="matrix(0.934724,-0.355374,-0.355374,-0.934724,76.2428,232.333)">
                <path d="M-0.011,0.059L0.324,0.06" style="fill:none;fill-rule:nonzero;stroke:rgb(35,31,32);stroke-width:0.4px;"/>
            </g>
        </g>
        <g transform="matrix(5.55556,0,0,5.55556,11373,24312.9)">
            <g transform="matrix(1,0,0,1,76.7448,229.947)">
                <path d="M0,5.331C0.039,5.197 1.38,4.636 1.9,1.996C1.9,1.996 2.193,0.778 3.213,0" style="fill:none;fill-rule:nonzero;stroke:rgb(35,31,32);stroke-width:0.4px;"/>
            </g>
        </g>
        <g transform="matrix(5.55556,0,0,5.55556,11373,24312.9)">
            <g transform="matrix(1,0,0,1,80.0456,228.263)">
                <path d="M0,1.392C-0.038,1.371 -1.518,2.09 -1.295,0.819C-1.071,-0.453 0.1,1.04 0.11,1.001C0.12,0.962 -0.811,-0.921 -0.019,-0.883C0.772,-0.846 0.599,0.347 0.599,0.347C0.599,0.347 1.318,-0.695 1.738,-0.117C2.157,0.461 0.914,0.835 0.904,0.808C0.894,0.782 2.533,0.676 2.003,1.417C1.473,2.157 0.5,2.313 0.307,1.465" style="fill:none;fill-rule:nonzero;stroke:rgb(35,31,32);stroke-width:0.4px;"/>
            </g>
        </g>
    </g>
</svg>
